<?xml version="1.0" encoding="UTF-8"?>
<svg id="Layer_1" xmlns="http://www.w3.org/2000/svg" version="1.1" viewBox="0 0 994 313">
  <!-- Generator: Adobe Illustrator 29.8.6, SVG Export Plug-In . SVG Version: 2.1.1 Build 1)  -->
  <defs>
    <style>
      .st0 {
        fill: #fff;
      }
    </style>
  </defs>
  <path class="st0" d="M66.5,9H20v286h47V84l2.8,2.7c46.4,69.3,91.6,139.6,138.7,208.3h46.5V9h-47v212L66.5,9ZM410,48c-6.2-13.9-15.6-26.1-23.5-39h-100c-.1,0-1.5,1.4-1.5,1.5v283c0,.1,1.4,1.5,1.5,1.5h101l23.5-38h-78v-87h97.5c.1,0,1.5-1.4,1.5-1.5v-36c0-.1-1.4-1.5-1.5-1.5h-97.5V48h77ZM734,10h-51.5l-2.3,2.7-46.9,81,24.3,39.3,76.5-123h0ZM965,10h-200v38h77v247h47V48h76V10ZM733,295l-75.5-123-26.3,43.2,50.3,79.7h51.5Z"/>
  <g>
    <g>
      <path d="M66.5,9l141.5,212V9h47v286h-46.5c-47.1-68.7-92.3-139-138.7-208.3l-2.8-2.7v211H20V9h46.5Z"/>
      <path d="M410,48h-77v83h97.5c.1,0,1.5,1.4,1.5,1.5v36c0,.1-1.4,1.5-1.5,1.5h-97.5v87h78l-23.5,38h-101c-.1,0-1.5-1.4-1.5-1.5V10.5c0-.1,1.4-1.5,1.5-1.5h100c7.9,12.9,17.3,25.1,23.5,39Z"/>
    </g>
    <g>
      <polygon points="965 10 965 48 889 48 889 295 842 295 842 48 765 48 765 10 965 10"/>
      <g>
        <polygon points="733 295 681.5 295 631.2 215.3 657.5 172 733 295"/>
        <polygon points="734 10 657.5 133 633.2 93.7 680.2 12.7 682.5 10 734 10"/>
      </g>
    </g>
  </g>
</svg>